G04 Layer: BottomSilkLayer*
G04 EasyEDA v6.3.22, 2020-03-31T10:39:25+02:00*
G04 031d35559eb5429b949d46eb78df2012,abd45e37305a4832af207281f16f9658,10*
G04 Gerber Generator version 0.2*
G04 Scale: 100 percent, Rotated: No, Reflected: No *
G04 Dimensions in millimeters *
G04 leading zeros omitted , absolute positions ,3 integer and 3 decimal *
%FSLAX33Y33*%
%MOMM*%
G90*
G71D02*

%ADD10C,0.254000*%
%ADD15C,0.203200*%
%ADD16C,0.202999*%
%ADD17C,0.152400*%

%LPD*%
G54D10*
G01X26035Y69342D02*
G01X56515Y69342D01*
G01X56515Y13462D01*
G01X26035Y13462D01*
G01X26035Y18669D01*
G01X26035Y59182D01*
G01X26035Y69342D01*
G54D15*
G01X67437Y70231D02*
G01X69977Y70231D01*
G01X69977Y72771D01*
G01X67437Y72771D01*
G01X67437Y70866D01*
G54D16*
G01X67437Y70231D02*
G01X67437Y70866D01*
G54D15*
G01X67437Y65151D02*
G01X69977Y65151D01*
G01X69977Y67691D01*
G01X67437Y67691D01*
G01X67437Y65786D01*
G54D16*
G01X67437Y65151D02*
G01X67437Y65786D01*
G54D15*
G01X67437Y60071D02*
G01X69977Y60071D01*
G01X69977Y62611D01*
G01X67437Y62611D01*
G01X67437Y60706D01*
G54D16*
G01X67437Y60071D02*
G01X67437Y60706D01*
G54D15*
G01X67437Y54991D02*
G01X69977Y54991D01*
G01X69977Y57531D01*
G01X67437Y57531D01*
G01X67437Y55626D01*
G54D16*
G01X67437Y54991D02*
G01X67437Y55626D01*
G54D15*
G01X67437Y49911D02*
G01X69977Y49911D01*
G01X69977Y52451D01*
G01X67437Y52451D01*
G01X67437Y50546D01*
G54D16*
G01X67437Y49911D02*
G01X67437Y50546D01*
G54D15*
G01X67437Y44831D02*
G01X69977Y44831D01*
G01X69977Y47371D01*
G01X67437Y47371D01*
G01X67437Y45466D01*
G54D16*
G01X67437Y44831D02*
G01X67437Y45466D01*
G54D15*
G01X67437Y39751D02*
G01X69977Y39751D01*
G01X69977Y42291D01*
G01X67437Y42291D01*
G01X67437Y40386D01*
G54D16*
G01X67437Y39751D02*
G01X67437Y40386D01*
G54D15*
G01X67437Y34671D02*
G01X69977Y34671D01*
G01X69977Y37211D01*
G01X67437Y37211D01*
G01X67437Y35306D01*
G54D16*
G01X67437Y34671D02*
G01X67437Y35306D01*
G54D15*
G01X67437Y29591D02*
G01X69977Y29591D01*
G01X69977Y32131D01*
G01X67437Y32131D01*
G01X67437Y30226D01*
G54D16*
G01X67437Y29591D02*
G01X67437Y30226D01*
G54D15*
G01X67437Y24511D02*
G01X69977Y24511D01*
G01X69977Y27051D01*
G01X67437Y27051D01*
G01X67437Y25146D01*
G54D16*
G01X67437Y24511D02*
G01X67437Y25146D01*
G54D15*
G01X67437Y19431D02*
G01X69977Y19431D01*
G01X69977Y21971D01*
G01X67437Y21971D01*
G01X67437Y20066D01*
G54D16*
G01X67437Y19431D02*
G01X67437Y20066D01*
G54D15*
G01X67437Y14351D02*
G01X69977Y14351D01*
G01X69977Y16891D01*
G01X67437Y16891D01*
G01X67437Y14986D01*
G54D16*
G01X67437Y14351D02*
G01X67437Y14986D01*
G54D15*
G01X67437Y9271D02*
G01X69977Y9271D01*
G01X69977Y11811D01*
G01X67437Y11811D01*
G01X67437Y9906D01*
G54D16*
G01X67437Y9271D02*
G01X67437Y9906D01*
G54D15*
G01X67437Y4191D02*
G01X69977Y4191D01*
G01X69977Y6731D01*
G01X67437Y6731D01*
G01X67437Y4826D01*
G54D16*
G01X67437Y4191D02*
G01X67437Y4826D01*
G54D15*
G01X51458Y54379D02*
G01X51515Y54494D01*
G01X51631Y54610D01*
G01X51746Y54667D01*
G01X51977Y54667D01*
G01X52093Y54610D01*
G01X52208Y54494D01*
G01X52266Y54379D01*
G01X52324Y54205D01*
G01X52324Y53917D01*
G01X52266Y53744D01*
G01X52208Y53628D01*
G01X52093Y53513D01*
G01X51977Y53455D01*
G01X51746Y53455D01*
G01X51631Y53513D01*
G01X51515Y53628D01*
G01X51458Y53744D01*
G01X51458Y53917D01*
G01X51746Y53917D02*
G01X51458Y53917D01*
G01X51077Y54667D02*
G01X51077Y53455D01*
G01X51077Y54667D02*
G01X50268Y53455D01*
G01X50268Y54667D02*
G01X50268Y53455D01*
G01X49887Y54667D02*
G01X49887Y53455D01*
G01X49887Y54667D02*
G01X49483Y54667D01*
G01X49310Y54610D01*
G01X49195Y54494D01*
G01X49137Y54379D01*
G01X49079Y54205D01*
G01X49079Y53917D01*
G01X49137Y53744D01*
G01X49195Y53628D01*
G01X49310Y53513D01*
G01X49483Y53455D01*
G01X49887Y53455D01*
G01X52324Y57207D02*
G01X51862Y55995D01*
G01X51400Y57207D02*
G01X51862Y55995D01*
G01X51019Y57207D02*
G01X50961Y57150D01*
G01X50903Y57207D01*
G01X50961Y57265D01*
G01X51019Y57207D01*
G01X50961Y56803D02*
G01X50961Y55995D01*
G01X50522Y56803D02*
G01X50522Y55995D01*
G01X50522Y56572D02*
G01X50349Y56745D01*
G01X50234Y56803D01*
G01X50061Y56803D01*
G01X49945Y56745D01*
G01X49887Y56572D01*
G01X49887Y55995D01*
G01X32662Y54379D02*
G01X32719Y54494D01*
G01X32835Y54610D01*
G01X32950Y54667D01*
G01X33181Y54667D01*
G01X33297Y54610D01*
G01X33412Y54494D01*
G01X33470Y54379D01*
G01X33528Y54205D01*
G01X33528Y53917D01*
G01X33470Y53744D01*
G01X33412Y53628D01*
G01X33297Y53513D01*
G01X33181Y53455D01*
G01X32950Y53455D01*
G01X32835Y53513D01*
G01X32719Y53628D01*
G01X32662Y53744D01*
G01X32662Y53917D01*
G01X32950Y53917D02*
G01X32662Y53917D01*
G01X32281Y54667D02*
G01X32281Y53455D01*
G01X32281Y54667D02*
G01X31472Y53455D01*
G01X31472Y54667D02*
G01X31472Y53455D01*
G01X31091Y54667D02*
G01X31091Y53455D01*
G01X31091Y54667D02*
G01X30687Y54667D01*
G01X30514Y54610D01*
G01X30399Y54494D01*
G01X30341Y54379D01*
G01X30283Y54205D01*
G01X30283Y53917D01*
G01X30341Y53744D01*
G01X30399Y53628D01*
G01X30514Y53513D01*
G01X30687Y53455D01*
G01X31091Y53455D01*
G01X33539Y57207D02*
G01X32904Y57207D01*
G01X33250Y56745D01*
G01X33077Y56745D01*
G01X32962Y56688D01*
G01X32904Y56630D01*
G01X32846Y56457D01*
G01X32846Y56341D01*
G01X32904Y56168D01*
G01X33020Y56053D01*
G01X33193Y55995D01*
G01X33366Y55995D01*
G01X33539Y56053D01*
G01X33597Y56110D01*
G01X33655Y56226D01*
G01X32465Y56803D02*
G01X32119Y55995D01*
G01X31773Y56803D02*
G01X32119Y55995D01*
G01X31276Y57207D02*
G01X30641Y57207D01*
G01X30988Y56745D01*
G01X30814Y56745D01*
G01X30699Y56688D01*
G01X30641Y56630D01*
G01X30583Y56457D01*
G01X30583Y56341D01*
G01X30641Y56168D01*
G01X30757Y56053D01*
G01X30930Y55995D01*
G01X31103Y55995D01*
G01X31276Y56053D01*
G01X31334Y56110D01*
G01X31392Y56226D01*
G01X52324Y21647D02*
G01X52324Y20435D01*
G01X52324Y21647D02*
G01X51573Y21647D01*
G01X52324Y21070D02*
G01X51862Y21070D01*
G01X52324Y20435D02*
G01X51573Y20435D01*
G01X51192Y21647D02*
G01X51192Y20435D01*
G01X51192Y21647D02*
G01X50384Y20435D01*
G01X50384Y21647D02*
G01X50384Y20435D01*
G54D17*
G01X68707Y73822D02*
G01X68707Y72732D01*
G01X68707Y73822D02*
G01X68239Y73822D01*
G01X68084Y73771D01*
G01X68031Y73718D01*
G01X67980Y73614D01*
G01X67980Y73459D01*
G01X68031Y73355D01*
G01X68084Y73304D01*
G01X68239Y73251D01*
G01X68707Y73251D01*
G01X67637Y73614D02*
G01X67533Y73667D01*
G01X67376Y73822D01*
G01X67376Y72732D01*
G01X66410Y73667D02*
G01X66461Y73771D01*
G01X66619Y73822D01*
G01X66723Y73822D01*
G01X66878Y73771D01*
G01X66982Y73614D01*
G01X67033Y73355D01*
G01X67033Y73096D01*
G01X66982Y72887D01*
G01X66878Y72783D01*
G01X66723Y72732D01*
G01X66669Y72732D01*
G01X66514Y72783D01*
G01X66410Y72887D01*
G01X66357Y73042D01*
G01X66357Y73096D01*
G01X66410Y73251D01*
G01X66514Y73355D01*
G01X66669Y73406D01*
G01X66723Y73406D01*
G01X66878Y73355D01*
G01X66982Y73251D01*
G01X67033Y73096D01*
G01X68707Y68742D02*
G01X68707Y67652D01*
G01X68707Y68742D02*
G01X68239Y68742D01*
G01X68084Y68691D01*
G01X68031Y68638D01*
G01X67980Y68534D01*
G01X67980Y68379D01*
G01X68031Y68275D01*
G01X68084Y68224D01*
G01X68239Y68171D01*
G01X68707Y68171D01*
G01X67637Y68534D02*
G01X67533Y68587D01*
G01X67376Y68742D01*
G01X67376Y67652D01*
G01X66306Y68742D02*
G01X66827Y67652D01*
G01X67033Y68742D02*
G01X66306Y68742D01*
G01X68707Y63662D02*
G01X68707Y62572D01*
G01X68707Y63662D02*
G01X68239Y63662D01*
G01X68084Y63611D01*
G01X68031Y63558D01*
G01X67980Y63454D01*
G01X67980Y63299D01*
G01X68031Y63195D01*
G01X68084Y63144D01*
G01X68239Y63091D01*
G01X68707Y63091D01*
G01X67637Y63454D02*
G01X67533Y63507D01*
G01X67376Y63662D01*
G01X67376Y62572D01*
G01X66774Y63662D02*
G01X66929Y63611D01*
G01X66982Y63507D01*
G01X66982Y63403D01*
G01X66929Y63299D01*
G01X66827Y63246D01*
G01X66619Y63195D01*
G01X66461Y63144D01*
G01X66357Y63040D01*
G01X66306Y62936D01*
G01X66306Y62778D01*
G01X66357Y62674D01*
G01X66410Y62623D01*
G01X66565Y62572D01*
G01X66774Y62572D01*
G01X66929Y62623D01*
G01X66982Y62674D01*
G01X67033Y62778D01*
G01X67033Y62936D01*
G01X66982Y63040D01*
G01X66878Y63144D01*
G01X66723Y63195D01*
G01X66514Y63246D01*
G01X66410Y63299D01*
G01X66357Y63403D01*
G01X66357Y63507D01*
G01X66410Y63611D01*
G01X66565Y63662D01*
G01X66774Y63662D01*
G01X68707Y58582D02*
G01X68707Y57492D01*
G01X68707Y58582D02*
G01X68239Y58582D01*
G01X68084Y58531D01*
G01X68031Y58478D01*
G01X67980Y58374D01*
G01X67980Y58219D01*
G01X68031Y58115D01*
G01X68084Y58064D01*
G01X68239Y58011D01*
G01X68707Y58011D01*
G01X67637Y58374D02*
G01X67533Y58427D01*
G01X67376Y58582D01*
G01X67376Y57492D01*
G01X66357Y58219D02*
G01X66410Y58064D01*
G01X66514Y57960D01*
G01X66669Y57906D01*
G01X66723Y57906D01*
G01X66878Y57960D01*
G01X66982Y58064D01*
G01X67033Y58219D01*
G01X67033Y58270D01*
G01X66982Y58427D01*
G01X66878Y58531D01*
G01X66723Y58582D01*
G01X66669Y58582D01*
G01X66514Y58531D01*
G01X66410Y58427D01*
G01X66357Y58219D01*
G01X66357Y57960D01*
G01X66410Y57698D01*
G01X66514Y57543D01*
G01X66669Y57492D01*
G01X66774Y57492D01*
G01X66929Y57543D01*
G01X66982Y57647D01*
G01X68707Y53502D02*
G01X68707Y52412D01*
G01X68707Y53502D02*
G01X68239Y53502D01*
G01X68084Y53451D01*
G01X68031Y53398D01*
G01X67980Y53294D01*
G01X67980Y53139D01*
G01X68031Y53035D01*
G01X68084Y52984D01*
G01X68239Y52931D01*
G01X68707Y52931D01*
G01X67584Y53243D02*
G01X67584Y53294D01*
G01X67533Y53398D01*
G01X67480Y53451D01*
G01X67376Y53502D01*
G01X67170Y53502D01*
G01X67066Y53451D01*
G01X67012Y53398D01*
G01X66962Y53294D01*
G01X66962Y53190D01*
G01X67012Y53086D01*
G01X67116Y52931D01*
G01X67637Y52412D01*
G01X66908Y52412D01*
G01X66255Y53502D02*
G01X66410Y53451D01*
G01X66514Y53294D01*
G01X66565Y53035D01*
G01X66565Y52880D01*
G01X66514Y52618D01*
G01X66410Y52463D01*
G01X66255Y52412D01*
G01X66151Y52412D01*
G01X65994Y52463D01*
G01X65890Y52618D01*
G01X65839Y52880D01*
G01X65839Y53035D01*
G01X65890Y53294D01*
G01X65994Y53451D01*
G01X66151Y53502D01*
G01X66255Y53502D01*
G01X68707Y48422D02*
G01X68707Y47332D01*
G01X68707Y48422D02*
G01X68239Y48422D01*
G01X68084Y48371D01*
G01X68031Y48318D01*
G01X67980Y48214D01*
G01X67980Y48059D01*
G01X68031Y47955D01*
G01X68084Y47904D01*
G01X68239Y47851D01*
G01X68707Y47851D01*
G01X67584Y48163D02*
G01X67584Y48214D01*
G01X67533Y48318D01*
G01X67480Y48371D01*
G01X67376Y48422D01*
G01X67170Y48422D01*
G01X67066Y48371D01*
G01X67012Y48318D01*
G01X66962Y48214D01*
G01X66962Y48110D01*
G01X67012Y48006D01*
G01X67116Y47851D01*
G01X67637Y47332D01*
G01X66908Y47332D01*
G01X66565Y48214D02*
G01X66461Y48267D01*
G01X66306Y48422D01*
G01X66306Y47332D01*
G01X68707Y43342D02*
G01X68707Y42252D01*
G01X68707Y43342D02*
G01X68239Y43342D01*
G01X68084Y43291D01*
G01X68031Y43238D01*
G01X67980Y43134D01*
G01X67980Y42979D01*
G01X68031Y42875D01*
G01X68084Y42824D01*
G01X68239Y42771D01*
G01X68707Y42771D01*
G01X67584Y43083D02*
G01X67584Y43134D01*
G01X67533Y43238D01*
G01X67480Y43291D01*
G01X67376Y43342D01*
G01X67170Y43342D01*
G01X67066Y43291D01*
G01X67012Y43238D01*
G01X66962Y43134D01*
G01X66962Y43030D01*
G01X67012Y42926D01*
G01X67116Y42771D01*
G01X67637Y42252D01*
G01X66908Y42252D01*
G01X66514Y43083D02*
G01X66514Y43134D01*
G01X66461Y43238D01*
G01X66410Y43291D01*
G01X66306Y43342D01*
G01X66098Y43342D01*
G01X65994Y43291D01*
G01X65943Y43238D01*
G01X65890Y43134D01*
G01X65890Y43030D01*
G01X65943Y42926D01*
G01X66047Y42771D01*
G01X66565Y42252D01*
G01X65839Y42252D01*
G01X68707Y38262D02*
G01X68707Y37172D01*
G01X68707Y38262D02*
G01X68239Y38262D01*
G01X68084Y38211D01*
G01X68031Y38158D01*
G01X67980Y38054D01*
G01X67980Y37899D01*
G01X68031Y37795D01*
G01X68084Y37744D01*
G01X68239Y37691D01*
G01X68707Y37691D01*
G01X67584Y38003D02*
G01X67584Y38054D01*
G01X67533Y38158D01*
G01X67480Y38211D01*
G01X67376Y38262D01*
G01X67170Y38262D01*
G01X67066Y38211D01*
G01X67012Y38158D01*
G01X66962Y38054D01*
G01X66962Y37950D01*
G01X67012Y37846D01*
G01X67116Y37691D01*
G01X67637Y37172D01*
G01X66908Y37172D01*
G01X66461Y38262D02*
G01X65890Y38262D01*
G01X66202Y37846D01*
G01X66047Y37846D01*
G01X65943Y37795D01*
G01X65890Y37744D01*
G01X65839Y37586D01*
G01X65839Y37482D01*
G01X65890Y37327D01*
G01X65994Y37223D01*
G01X66151Y37172D01*
G01X66306Y37172D01*
G01X66461Y37223D01*
G01X66514Y37274D01*
G01X66565Y37378D01*
G01X68707Y33182D02*
G01X68707Y32092D01*
G01X68707Y33182D02*
G01X68239Y33182D01*
G01X68084Y33131D01*
G01X68031Y33078D01*
G01X67980Y32974D01*
G01X67980Y32819D01*
G01X68031Y32715D01*
G01X68084Y32664D01*
G01X68239Y32611D01*
G01X68707Y32611D01*
G01X67584Y32923D02*
G01X67584Y32974D01*
G01X67533Y33078D01*
G01X67480Y33131D01*
G01X67376Y33182D01*
G01X67170Y33182D01*
G01X67066Y33131D01*
G01X67012Y33078D01*
G01X66962Y32974D01*
G01X66962Y32870D01*
G01X67012Y32766D01*
G01X67116Y32611D01*
G01X67637Y32092D01*
G01X66908Y32092D01*
G01X66047Y33182D02*
G01X66565Y32456D01*
G01X65786Y32456D01*
G01X66047Y33182D02*
G01X66047Y32092D01*
G01X68707Y28102D02*
G01X68707Y27012D01*
G01X68707Y28102D02*
G01X68239Y28102D01*
G01X68084Y28051D01*
G01X68031Y27998D01*
G01X67980Y27894D01*
G01X67980Y27739D01*
G01X68031Y27635D01*
G01X68084Y27584D01*
G01X68239Y27531D01*
G01X68707Y27531D01*
G01X67584Y27843D02*
G01X67584Y27894D01*
G01X67533Y27998D01*
G01X67480Y28051D01*
G01X67376Y28102D01*
G01X67170Y28102D01*
G01X67066Y28051D01*
G01X67012Y27998D01*
G01X66962Y27894D01*
G01X66962Y27790D01*
G01X67012Y27686D01*
G01X67116Y27531D01*
G01X67637Y27012D01*
G01X66908Y27012D01*
G01X65943Y28102D02*
G01X66461Y28102D01*
G01X66514Y27635D01*
G01X66461Y27686D01*
G01X66306Y27739D01*
G01X66151Y27739D01*
G01X65994Y27686D01*
G01X65890Y27584D01*
G01X65839Y27426D01*
G01X65839Y27322D01*
G01X65890Y27167D01*
G01X65994Y27063D01*
G01X66151Y27012D01*
G01X66306Y27012D01*
G01X66461Y27063D01*
G01X66514Y27114D01*
G01X66565Y27218D01*
G01X68707Y23022D02*
G01X68707Y21932D01*
G01X68707Y23022D02*
G01X68239Y23022D01*
G01X68084Y22971D01*
G01X68031Y22918D01*
G01X67980Y22814D01*
G01X67980Y22659D01*
G01X68031Y22555D01*
G01X68084Y22504D01*
G01X68239Y22451D01*
G01X68707Y22451D01*
G01X67584Y22763D02*
G01X67584Y22814D01*
G01X67533Y22918D01*
G01X67480Y22971D01*
G01X67376Y23022D01*
G01X67170Y23022D01*
G01X67066Y22971D01*
G01X67012Y22918D01*
G01X66962Y22814D01*
G01X66962Y22710D01*
G01X67012Y22606D01*
G01X67116Y22451D01*
G01X67637Y21932D01*
G01X66908Y21932D01*
G01X65943Y22867D02*
G01X65994Y22971D01*
G01X66151Y23022D01*
G01X66255Y23022D01*
G01X66410Y22971D01*
G01X66514Y22814D01*
G01X66565Y22555D01*
G01X66565Y22296D01*
G01X66514Y22087D01*
G01X66410Y21983D01*
G01X66255Y21932D01*
G01X66202Y21932D01*
G01X66047Y21983D01*
G01X65943Y22087D01*
G01X65890Y22242D01*
G01X65890Y22296D01*
G01X65943Y22451D01*
G01X66047Y22555D01*
G01X66202Y22606D01*
G01X66255Y22606D01*
G01X66410Y22555D01*
G01X66514Y22451D01*
G01X66565Y22296D01*
G01X68707Y17942D02*
G01X68707Y16852D01*
G01X68707Y17942D02*
G01X68239Y17942D01*
G01X68084Y17891D01*
G01X68031Y17838D01*
G01X67980Y17734D01*
G01X67980Y17579D01*
G01X68031Y17475D01*
G01X68084Y17424D01*
G01X68239Y17371D01*
G01X68707Y17371D01*
G01X67584Y17683D02*
G01X67584Y17734D01*
G01X67533Y17838D01*
G01X67480Y17891D01*
G01X67376Y17942D01*
G01X67170Y17942D01*
G01X67066Y17891D01*
G01X67012Y17838D01*
G01X66962Y17734D01*
G01X66962Y17630D01*
G01X67012Y17526D01*
G01X67116Y17371D01*
G01X67637Y16852D01*
G01X66908Y16852D01*
G01X65839Y17942D02*
G01X66357Y16852D01*
G01X66565Y17942D02*
G01X65839Y17942D01*
G01X68707Y12862D02*
G01X68707Y11772D01*
G01X68707Y12862D02*
G01X68239Y12862D01*
G01X68084Y12811D01*
G01X68031Y12758D01*
G01X67980Y12654D01*
G01X67980Y12499D01*
G01X68031Y12395D01*
G01X68084Y12344D01*
G01X68239Y12291D01*
G01X68707Y12291D01*
G01X67584Y12603D02*
G01X67584Y12654D01*
G01X67533Y12758D01*
G01X67480Y12811D01*
G01X67376Y12862D01*
G01X67170Y12862D01*
G01X67066Y12811D01*
G01X67012Y12758D01*
G01X66962Y12654D01*
G01X66962Y12550D01*
G01X67012Y12446D01*
G01X67116Y12291D01*
G01X67637Y11772D01*
G01X66908Y11772D01*
G01X66306Y12862D02*
G01X66461Y12811D01*
G01X66514Y12707D01*
G01X66514Y12603D01*
G01X66461Y12499D01*
G01X66357Y12446D01*
G01X66151Y12395D01*
G01X65994Y12344D01*
G01X65890Y12240D01*
G01X65839Y12136D01*
G01X65839Y11978D01*
G01X65890Y11874D01*
G01X65943Y11823D01*
G01X66098Y11772D01*
G01X66306Y11772D01*
G01X66461Y11823D01*
G01X66514Y11874D01*
G01X66565Y11978D01*
G01X66565Y12136D01*
G01X66514Y12240D01*
G01X66410Y12344D01*
G01X66255Y12395D01*
G01X66047Y12446D01*
G01X65943Y12499D01*
G01X65890Y12603D01*
G01X65890Y12707D01*
G01X65943Y12811D01*
G01X66098Y12862D01*
G01X66306Y12862D01*
G01X68707Y7782D02*
G01X68707Y6692D01*
G01X68707Y7782D02*
G01X68239Y7782D01*
G01X68084Y7731D01*
G01X68031Y7678D01*
G01X67980Y7574D01*
G01X67980Y7419D01*
G01X68031Y7315D01*
G01X68084Y7264D01*
G01X68239Y7211D01*
G01X68707Y7211D01*
G01X67584Y7523D02*
G01X67584Y7574D01*
G01X67533Y7678D01*
G01X67480Y7731D01*
G01X67376Y7782D01*
G01X67170Y7782D01*
G01X67066Y7731D01*
G01X67012Y7678D01*
G01X66962Y7574D01*
G01X66962Y7470D01*
G01X67012Y7366D01*
G01X67116Y7211D01*
G01X67637Y6692D01*
G01X66908Y6692D01*
G01X65890Y7419D02*
G01X65943Y7264D01*
G01X66047Y7160D01*
G01X66202Y7106D01*
G01X66255Y7106D01*
G01X66410Y7160D01*
G01X66514Y7264D01*
G01X66565Y7419D01*
G01X66565Y7470D01*
G01X66514Y7627D01*
G01X66410Y7731D01*
G01X66255Y7782D01*
G01X66202Y7782D01*
G01X66047Y7731D01*
G01X65943Y7627D01*
G01X65890Y7419D01*
G01X65890Y7160D01*
G01X65943Y6898D01*
G01X66047Y6743D01*
G01X66202Y6692D01*
G01X66306Y6692D01*
G01X66461Y6743D01*
G01X66514Y6847D01*
M00*
M02*
