G04 Layer: BottomSolderMaskLayer*
G04 EasyEDA v6.3.22, 2020-03-31T10:39:25+02:00*
G04 031d35559eb5429b949d46eb78df2012,abd45e37305a4832af207281f16f9658,10*
G04 Gerber Generator version 0.2*
G04 Scale: 100 percent, Rotated: No, Reflected: No *
G04 Dimensions in millimeters *
G04 leading zeros omitted , absolute positions ,3 integer and 3 decimal *
%FSLAX33Y33*%
%MOMM*%
G90*
G71D02*

%ADD18C,4.203192*%
%ADD19C,2.203196*%

%LPD*%
G54D18*
G01X7747Y71501D03*
G01X7747Y66421D03*
G01X7747Y61341D03*
G01X7747Y56261D03*
G01X7747Y51181D03*
G01X7747Y46101D03*
G01X7747Y41021D03*
G01X7747Y35941D03*
G01X7747Y30861D03*
G01X7747Y25781D03*
G01X7747Y20701D03*
G01X7747Y15621D03*
G01X7747Y10541D03*
G01X7747Y5461D03*
G54D19*
G01X53975Y41402D03*
G01X53975Y43942D03*
G01X53975Y46482D03*
G01X53975Y49022D03*
G01X53975Y51435D03*
G01X53975Y54102D03*
G01X53975Y56642D03*
G01X53975Y21082D03*
G01X53975Y23622D03*
G01X53975Y26162D03*
G01X53975Y28702D03*
G01X53975Y31242D03*
G01X53975Y33782D03*
G01X53975Y36322D03*
G01X53975Y38862D03*
G01X28575Y21082D03*
G01X28575Y23622D03*
G01X28575Y26162D03*
G01X28575Y28702D03*
G01X28575Y31242D03*
G01X28575Y33782D03*
G01X28575Y36322D03*
G01X28575Y38862D03*
G01X28575Y41402D03*
G01X28575Y43942D03*
G01X28575Y46482D03*
G01X28575Y49022D03*
G01X28575Y51562D03*
G01X28575Y54102D03*
G36*
G01X27472Y55539D02*
G01X27472Y57744D01*
G01X29677Y57744D01*
G01X29677Y55539D01*
G01X27472Y55539D01*
G37*
G54D18*
G01X68707Y71501D03*
G01X68707Y66421D03*
G01X68707Y61341D03*
G01X68707Y56261D03*
G01X68707Y51181D03*
G01X68707Y46101D03*
G01X68707Y41021D03*
G01X68707Y35941D03*
G01X68707Y30861D03*
G01X68707Y25781D03*
G01X68707Y20701D03*
G01X68707Y15621D03*
G01X68707Y10541D03*
G01X68707Y5461D03*
M00*
M02*
