;Layer: Drill NPTH
;EasyEDA v6.3.22, 2020-04-01T16:18:38+02:00
;0e8fc3db1dee42f9a134b2ba85487099,abd45e37305a4832af207281f16f9658,10
;Gerber Generator version 0.2
M48
METRIC,LZ,000.000
;Holesize 1 = 0.501 METRIC
T01C0.501
;Holesize 2 = 2.032 METRIC
T02C2.032
%
G05
G90
T01
X+028829Y+056515
X+028829Y+053975
X+028829Y+051435
X+028829Y+048895
X+028829Y+046355
X+028829Y+043815
X+028829Y+038735
X+028829Y+041275
X+028829Y+033655
X+028829Y+036195
X+028829Y+028575
X+028829Y+031115
X+028829Y+023495
X+028829Y+026035
X+028956Y+020955
X+054229Y+053975
X+054229Y+056515
X+054229Y+048895
X+054229Y+051308
X+054229Y+043815
X+054229Y+046355
X+054229Y+038735
X+054229Y+041275
X+054229Y+033655
X+054229Y+036195
X+054229Y+028575
X+054229Y+031115
X+054229Y+023495
X+054229Y+026035
X+054229Y+020955
T02
X+007747Y+046101
X+007747Y+041021
X+007620Y+035941
X+007620Y+030861
X+007747Y+025781
X+007747Y+020701
X+007747Y+015621
X+007747Y+010541
X+007747Y+005461
X+007747Y+071628
X+007874Y+066421
X+007874Y+061341
X+007747Y+056261
X+007747Y+051181
X+068707Y+071501
X+068707Y+066421
X+068707Y+061341
X+068707Y+056261
X+068707Y+051181
X+068707Y+046101
X+068707Y+041021
X+068707Y+035941
X+068707Y+030861
X+068707Y+025781
X+068707Y+020701
X+068707Y+015748
X+068707Y+010541
X+068707Y+005461
X+178054Y+068961
X+178054Y+063881
X+177927Y+058801
X+177927Y+053721
X+178054Y+048641
X+178054Y+043561
X+178054Y+038481
X+178054Y+033401
X+178054Y+028321
X+178054Y+094488
X+178181Y+089281
X+178181Y+084201
X+178054Y+079121
X+178054Y+074041
X+239014Y+094361
X+239014Y+089281
X+239014Y+084201
X+239014Y+079121
X+239014Y+074041
X+239014Y+068961
X+239014Y+063881
X+239014Y+058801
X+239014Y+053721
X+239014Y+048641
X+239014Y+043561
X+239014Y+038608
X+239014Y+033401
X+239014Y+028321
M30
